<?xml version="1.0" encoding="utf-8"?>
<!-- Generator: Adobe Illustrator 21.1.0, SVG Export Plug-In . SVG Version: 6.00 Build 0)  -->
<svg version="1.1" id="Layer_1" xmlns="http://www.w3.org/2000/svg" xmlns:xlink="http://www.w3.org/1999/xlink" x="0px" y="0px"
	 viewBox="0 80 360 360" style="enable-background:new 0 0 360 360;" xml:space="preserve">
<style type="text/css">
	.st0{fill:none;}
	.st1{fill:none;stroke:#000000;stroke-miterlimit:10;}
</style>
<path class="st0" d="M114,157.4c0.6,13.1,1.2,26.3,1.9,39.4c0.1,2.9,0.3,5.8,1.2,8.5c1,3.1,3,5.8,4.9,8.4
	c5.8,7.9,11.8,16.1,20.1,21.4c10.4,6.6,23.9,8.1,35.5,3.8c5.5-2,10.4-5.2,15.2-8.5c5-3.5,10.1-7.3,12.4-12.9
	c1.5-3.6,1.7-7.5,1.9-11.3c1.2-20.7,2.3-41.3,3.5-62"/>
<path class="st0" d="M244,147.3c0,0.1,0,0.3,0,0.4"/>
<path class="st1" d="M103.4,126c0,0,21.3-2.7,17.3-15.7c0,0,3.7,8,26-9c0,0,14.2-11,15.6-8.7c0,0,4.7-0.3,11.4-4c0,0-1.4,6.3,6.3,3
	c0,0,19.7,1,34.7,8.3c0,0-4.2,3.7-4.1,9.3c0,0,13.8-5,31.1,9c0,0-18.3,20.3,14.3,17.7c0,0-11.3,4.3-18,11.8c0,0,8,7.2,8.3,27.5
	c0,0-18-18-29-19.7c0,0,13,15.7,4.3,19.7c0,0-24.3-22-37.3-15c0,0,3.3,15.7-1.7,17c0,0-31.3-27.3-25.3-31.3c0,0-8.7-0.7-8.3,10
	c0,0-4.3-5.7-18,1.3c0,0,18.5,10.7-15.8,27.4c0,0,4.4-9,1.8-10.4c-2.7-1.3-10.3,2.7-11.3,3S126.1,157.9,103.4,126z"/>
<path class="st1" d="M233.7,167.9c-1,20.7-7.7,73.4-7.7,73.4c-1.3,21.1-18,27.6-17.7,28.3c0.3,0.7-29.3,16.3-34.3,15.7
	c-5-0.7-13,0.7-34.3-18c-21.3-18.7-18.7-31.3-18.7-31.3l-1.7-48.6l10.3-2.6c0,0,19.3-24.6,44,0c0,0,3.7-4.6,11,0c0,0,19.7-24.3,43,0
	c0,0,4.5,22.6-17.1,30.6c0,0-29.7,6.8-26.2-27.3"/>
<path class="st1" d="M173.7,184.6c0,0,5.3,32.6-20.7,31.9c-26-0.7-23.3-31.9-23.3-31.9l-10.3,2.6l-4.1-2.6c0,0-5.7-1-1.3,23
	c0,0,0.1,7.7,5.4,12.7"/>
<line class="st1" x1="227.7" y1="184.6" x2="232.8" y2="180"/>
<path class="st1" d="M232.4,184.6l4.3-2.3c0,0,6.3-0.1,3.3,8.3c0,0-0.1,2.7-3.4,11.8c0,0-0.9,0.5-1.6,6.1c0,0-0.4,4.3-2.2,5
	l-3.7,2.3"/>
<path class="st1" d="M184.4,187.8c0.1,2.3,0.2-2.3,0.2-2.3S184.4,187.6,184.4,187.8z"/>
<path class="st1" d="M191.8,193.3c0,0,4.3-1.2,4.8-2c0,0,6.7-4.2,10.6-4.3c0,0,6.8,0,15.4,8.5"/>
<path class="st1" d="M194.5,191.5c0,0,3.1-2.2,3.3-2.5c0.2-0.3,3.8-3.2,7.8-3.9c0,0,5.1-0.6,10.1,2.7c0,0,1.8,2,4.9,4.1
	c0,0,1.5,1.6,1.9,0.8"/>
<path class="st1" d="M194.5,192.4c0,0,2.4,1.9,11.9,3.1c0,0,11.5-2.3,13.5-1.5"/>
<path class="st1" d="M207.2,187c0,0-2.9,0.2-2.7,3.8c0,0-0.9,3.6,1.9,4.7c0,0,3,0.2,3.7-1.5c0.7-1.7,0.6-3.6,0-4.9
	S209,187.3,207.2,187z"/>
<path class="st1" d="M196.2,195c0.1-0.1,7,0.4,10.3,1.9c0,0,5.7,0.9,5.6,0"/>
<path class="st1" d="M167.2,193.9c0,0-7.4-2.5-8.5-3.5c0,0-5.3-4.3-9.1-3.1c0,0-3.3-0.2-8.7,3.9c0,0-4.7,3.1-5.5,2.7
	c0,0,7.5,0.6,10.6,2.2c0,0,5,1.8,9.3,0l9.9-2.2"/>
<path class="st1" d="M164,191.2c0-0.2-3.6-3.4-7.3-5c0,0-4.3-2-9.5,0c0,0-1.8,0-7.5,4.4c0,0-1.3,1.6-3.6,2.3"/>
<path class="st1" d="M149.7,187.3c0,0-1.9,0.2-3.4,1.8c0,0-1.4,4.3,1.7,7c0,0,1.4,1.7,4.9,0c0,0,2.2-3.3,1-5.5
	C153.9,190.6,153.3,186.4,149.7,187.3z"/>
<path class="st1" d="M161.3,196.9c-8.6,1.7-8.6,1.7-8.6,1.7l0,0c0,0-6.1,0.4-7.6-0.8"/>
<path class="st1" d="M165.3,230.6c-0.1,0,10.3-18.4,22.6,0"/>
<path class="st1" d="M150.2,275.6c-1.4,14.8-1.4,14.8-1.4,14.8s27.2,27.5,51.7-1.7l-2.7-13.1"/>
<path class="st1" d="M200.5,288.7c0,0,3.5-3.2,7.4,0.2c0,0,3.1,1.5,3.2,2.3c0,0,1.7,0.3-2.8,5.5c0,0-26.9,33.7-70.1-0.8
	c0,0-1-1.3,0-2.4c0,0,11.8-5.6,10.6-3"/>
<path class="st1" d="M111.7,310c0,0,26.1-17.2,26.6-14.2"/>
<path class="st1" d="M237.7,318.2c0,0-26-29.6-26.5-27.1"/>
<path class="st1" d="M128.7,302.7c-0.5,0.7,18.3,1.1,18.3,1.1"/>
<line class="st1" x1="196.7" y1="307.6" x2="223.6" y2="307.6"/>
<line class="st1" x1="121.7" y1="311.4" x2="230" y2="317.7"/>
<path class="st1" d="M170.4,254.7c4.5,0,9.1,0,13.6,0.1c1.1,0,2.2,0,3.2-0.4c0.9-0.3,1.7-0.9,2.5-1.5c5.5-4.1,11.4-8.7,13-15.4"/>
<path class="st1" d="M139.6,164.3c4.9-5.4,13.6-6.9,20-3.3"/>
<path class="st1" d="M195.7,171.4c5.4-2.3,11.6-2.6,17.1-0.7"/>
</svg>
